<svg width="69" height="18" viewBox="0 0 69 18" fill="none" xmlns="http://www.w3.org/2000/svg">
<path fill-rule="evenodd" clip-rule="evenodd" d="M24.9068 7.98927C24.0043 7.98927 23.1158 8.18312 22.2967 8.54312C21.5748 8.86158 20.9917 9.44312 20.6585 10.1493V17.7231H17.4514V5.22004H20.3947V7.89235C20.6029 7.47696 20.8667 7.08927 21.186 6.72927C21.4776 6.39696 21.8108 6.09235 22.1717 5.82927C22.5049 5.59389 22.852 5.38619 23.2408 5.24773C23.574 5.12312 23.9349 5.05389 24.282 5.04004H24.6707C24.754 5.04004 24.8373 5.05389 24.9206 5.06773L24.9068 7.98927Z" fill="#FFDA2A"/>
<path fill-rule="evenodd" clip-rule="evenodd" d="M34.8055 17.0723C34.2918 17.2939 33.7643 17.4877 33.2228 17.64C32.5842 17.8339 31.9317 17.9308 31.2653 17.9308C30.8349 17.9308 30.4184 17.8754 30.0019 17.7646C29.627 17.6677 29.28 17.4739 28.9745 17.2246C28.6691 16.9615 28.4331 16.6431 28.2665 16.2692C28.0721 15.8262 27.9888 15.3415 28.0027 14.8569V7.67078H26.3506V5.22001H28.0027V1.16309H31.2097V5.22001H33.8476V7.67078H31.2097V13.7769C31.2097 14.22 31.3208 14.5385 31.5568 14.7185C31.7928 14.9123 32.0983 15.0092 32.4037 14.9954C32.7369 14.9954 33.0701 14.94 33.3894 14.8292C33.7087 14.7185 33.9586 14.6215 34.153 14.5385L34.8055 17.0723Z" fill="#FFDA2A"/>
<path fill-rule="evenodd" clip-rule="evenodd" d="M36.1521 0.304688H39.3591V13.7078C39.3591 14.1647 39.4702 14.5247 39.6923 14.7878C39.9422 15.0508 40.2893 15.1893 40.6503 15.1755C40.8585 15.1755 41.0806 15.1339 41.2889 15.0785C41.511 15.0232 41.7332 14.9401 41.9414 14.8432L42.3718 17.2801C41.8859 17.5016 41.3861 17.6678 40.8585 17.7508C40.3448 17.8616 39.8311 17.917 39.3036 17.917C38.304 17.917 37.5265 17.6539 36.9712 17.1139C36.4158 16.5739 36.1521 15.8262 36.1382 14.8432L36.1521 0.304688Z" fill="#FFDA2A"/>
<path fill-rule="evenodd" clip-rule="evenodd" d="M44.0518 17.7231V5.21997H47.2588V17.7231H44.0518Z" fill="#FFDA2A"/>
<path fill-rule="evenodd" clip-rule="evenodd" d="M47.467 1.91078C47.4948 2.40924 47.3004 2.88001 46.9255 3.21232C46.5785 3.53078 46.1342 3.71078 45.6622 3.69693C45.1901 3.71078 44.7181 3.53078 44.371 3.21232C44.01 2.88001 43.8157 2.3954 43.8296 1.91078C43.8296 1.34309 44.01 0.900012 44.371 0.581551C44.7181 0.26309 45.1901 0.0830896 45.6622 0.0969357C46.1342 0.0969357 46.5785 0.26309 46.9255 0.581551C47.2865 0.900012 47.467 1.32924 47.467 1.91078Z" fill="#FFDA2A"/>
<path fill-rule="evenodd" clip-rule="evenodd" d="M54.5892 17.9586C53.5341 17.9586 52.4928 17.7924 51.5071 17.4601C50.563 17.1555 49.6884 16.6709 48.9248 16.034L50.1188 14.0263C50.8129 14.5247 51.5626 14.9401 52.354 15.2586C53.0481 15.5355 53.784 15.674 54.5198 15.674C55.1584 15.674 55.6582 15.5493 56.0331 15.314C56.394 15.0924 56.6023 14.7047 56.5884 14.2893C56.6023 13.8601 56.3385 13.4724 55.9498 13.3063C55.2695 13.0155 54.5614 12.7801 53.8395 12.5863C53.0204 12.3647 52.3262 12.157 51.757 11.9493C51.2572 11.7832 50.799 11.5478 50.3687 11.2432C50.0355 11.0078 49.7717 10.7032 49.6051 10.3293C49.4385 9.94165 49.3552 9.52626 49.3691 9.09703C49.3552 8.50165 49.4801 7.92011 49.7439 7.38011C49.9938 6.88165 50.3409 6.42472 50.7852 6.07857C51.2572 5.70472 51.7848 5.4278 52.354 5.2478C52.9787 5.05395 53.6451 4.95703 54.2976 4.95703C55.1862 4.95703 56.0886 5.08165 56.9355 5.35857C57.7685 5.63549 58.5459 6.07857 59.1984 6.67395L57.9073 8.61242C57.3381 8.18319 56.7133 7.82319 56.0469 7.56011C55.4777 7.33857 54.8807 7.2278 54.2699 7.2278C53.7978 7.21396 53.3258 7.32472 52.9093 7.56011C52.5483 7.78165 52.354 8.14165 52.354 8.64011C52.3401 8.83396 52.3956 9.0278 52.4928 9.19396C52.6039 9.36011 52.7427 9.48473 52.9093 9.58165C53.1453 9.72011 53.3952 9.81703 53.659 9.90011C53.9644 9.99703 54.3532 10.1078 54.8252 10.2186C55.686 10.4401 56.4218 10.6616 57.0326 10.8832C57.5741 11.0632 58.0739 11.3263 58.5459 11.6447C58.9069 11.894 59.1984 12.2401 59.4067 12.6416C59.6011 13.057 59.6982 13.5278 59.6844 13.9847C59.6844 15.2032 59.2262 16.1724 58.3238 16.8786C57.3797 17.6124 56.158 17.9586 54.5892 17.9586Z" fill="#FFDA2A"/>
<path fill-rule="evenodd" clip-rule="evenodd" d="M68.9723 17.0723C68.4586 17.2939 67.931 17.4877 67.3896 17.64C66.751 17.8339 66.0984 17.9308 65.432 17.9308C65.0017 17.9308 64.5852 17.8754 64.1825 17.7646C63.8077 17.6677 63.4606 17.4739 63.1552 17.2246C62.8498 16.9615 62.6137 16.6431 62.4471 16.2692C62.2528 15.8262 62.1695 15.3415 62.1834 14.8569V7.67078H60.5312V5.22001H62.1834V1.16309H65.3904V5.22001H68.0282V7.67078H65.3904V13.7769C65.3904 14.22 65.5015 14.5385 65.7375 14.7185C65.9735 14.9123 66.2789 15.0092 66.5844 14.9954C66.9176 14.9954 67.2508 14.94 67.5701 14.8292C67.8894 14.7185 68.1393 14.6215 68.3336 14.5385L68.9723 17.0723Z" fill="#FFDA2A"/>
<path fill-rule="evenodd" clip-rule="evenodd" d="M6.31692 1.91089H9.52396L15.7159 15.2586V17.737C13.2169 17.8478 10.6069 17.9032 7.9135 17.9032C5.22014 17.9032 2.61008 17.8478 0.111084 17.737V15.2586L6.31692 1.91089ZM3.55414 15.0924C5.01188 15.134 6.46963 15.1478 7.91349 15.1478C9.37124 15.1478 10.829 15.1201 12.2728 15.0924L7.91349 5.70473L3.55414 15.0924Z" fill="#FFDA2A"/>
</svg>
